<?xml version="1.0" encoding="utf-8"?>
<!-- Generator: Adobe Illustrator 21.1.0, SVG Export Plug-In . SVG Version: 6.00 Build 0)  -->
<svg version="1.1" id="Layer_1" xmlns="http://www.w3.org/2000/svg" xmlns:xlink="http://www.w3.org/1999/xlink" x="0px" y="0px"
	 viewBox="0 0 96 95" style="enable-background:new 0 0 96 95;" xml:space="preserve">
<g>
	<g>
		<path d="M60.7,66.1c-0.9-1.1-2-1.8-3.3-2.3l-17.1-5.7v-6h3v3.9l15.1,5c1.8,0.6,3.4,1.7,4.7,3.2L60.7,66.1z"/>
	</g>
	<g>
		<path d="M46.2,83.6H3.3V70.8c0-4.5,2.8-8.4,7.1-9.8l15.1-5v-3.9h3v6l-17.1,5.7c-3,1-5.1,3.8-5.1,7v9.9h40V83.6z"/>
	</g>
	<g>
		<path d="M49.1,43.7v-3c2.4,0,4.4-2,4.4-4.4s-2-4.4-4.4-4.4v-3c4.1,0,7.4,3.3,7.4,7.4S53.2,43.7,49.1,43.7z"/>
	</g>
	<g>
		<path d="M19.5,43.7c-4.1,0-7.4-3.3-7.4-7.4s3.3-7.4,7.4-7.4v3c-2.4,0-4.4,2-4.4,4.4s2,4.4,4.4,4.4V43.7z"/>
	</g>
	<g>
		<circle cx="26.9" cy="33.3" r="1.5"/>
	</g>
	<g>
		<circle cx="41.7" cy="33.3" r="1.5"/>
	</g>
	<g>
		<path d="M34.3,48.1c-3.3,0-5.9-2.7-5.9-5.9h3c0,1.6,1.3,3,3,3c1.6,0,3-1.3,3-3h3C40.2,45.5,37.6,48.1,34.3,48.1z"/>
	</g>
	<g>
		<path d="M34.3,55.5c-9,0-16.3-7.3-16.3-16.3V22.6l1.8,0.5c0.1,0,5.9,1.4,14.4,1.4c8.6,0,14.4-1.4,14.4-1.4l1.8-0.5l0,16.7
			C50.6,48.2,43.3,55.5,34.3,55.5z M21,26.3v13c0,7.3,6,13.3,13.3,13.3c7.3,0,13.3-6,13.3-13.3v-13c-2.4,0.5-7.2,1.1-13.3,1.1
			C28.2,27.4,23.5,26.7,21,26.3z"/>
	</g>
	<g>
		<path d="M56.5,36.3h-3V24.4c0-10.6-8.6-19.2-19.2-19.2s-19.2,8.6-19.2,19.2v11.8h-3V24.4c0-12.2,10-22.2,22.2-22.2
			c12.2,0,22.2,10,22.2,22.2V36.3z"/>
	</g>
	<g>
		<polygon points="26.5,74.4 19.7,59.1 22.4,57.9 27.4,69.2 32.2,64.4 25.9,58.1 28,56 36.4,64.4 		"/>
	</g>
	<g>
		<polygon points="42.2,74.4 32.2,64.4 40.7,56 42.8,58.1 36.4,64.4 41.2,69.2 46.3,57.9 49,59.1 		"/>
	</g>
	<g>
		<rect x="32.8" y="64.4" width="3" height="17.8"/>
	</g>
	<g>
		<path d="M95,70.3H56.5v-3.8l19.2-11.2L95,66.5V70.3z M60.9,67.4h29.6l-14.8-8.6L60.9,67.4z"/>
	</g>
	<g>
		<path d="M92,94H59.5V67.4H92V94z M62.4,91h26.6V70.3H62.4V91z"/>
	</g>
	<g>
		<polygon points="83.2,92.5 80.2,92.5 80.2,79.2 71.3,79.2 71.3,92.5 68.4,92.5 68.4,76.2 83.2,76.2 		"/>
	</g>
	<g>
		<path d="M94.8,40.7H56.7l7.9-11.8h22.3L94.8,40.7z M62.2,37.8h27l-3.9-5.9H66.2L62.2,37.8z"/>
	</g>
	<g>
		<rect x="61" y="39.2" width="3" height="25.5"/>
	</g>
	<g>
		<rect x="87.6" y="39.2" width="3" height="25.5"/>
	</g>
	<g>
		<path d="M84.6,52.6H66.9v-8.9h17.8V52.6z M69.8,49.6h11.8v-3H69.8V49.6z"/>
	</g>
	<g>
		<polygon points="61,94 44.7,94 44.7,78.1 60.5,73.3 61.4,76.2 47.6,80.3 47.6,91 61,91 		"/>
	</g>
	<g>
		<polygon points="53.6,92.5 50.6,92.5 50.6,82.2 61,82.2 61,85.1 53.6,85.1 		"/>
	</g>
</g>
</svg>
