<?xml version="1.0" encoding="utf-8"?>
<!-- Generator: Adobe Illustrator 21.1.0, SVG Export Plug-In . SVG Version: 6.00 Build 0)  -->
<svg version="1.1" id="Layer_1" xmlns="http://www.w3.org/2000/svg" xmlns:xlink="http://www.w3.org/1999/xlink" x="0px" y="0px"
	 viewBox="0 0 96 95" style="enable-background:new 0 0 96 95;" xml:space="preserve">
<g>
	<g>
		<path d="M74.7,94H4.7V61.9h70.1V94z M7.6,91.1h64.2V64.8H7.6V91.1z"/>
	</g>
	<g>
		<path d="M39.7,85.2c-2.4,0-4.4-2-4.4-4.4h2.9c0,0.8,0.7,1.5,1.5,1.5c0.8,0,1.5-0.7,1.5-1.5c0-0.8-0.7-1.5-1.5-1.5
			c-2.4,0-4.4-2-4.4-4.4c0-2.4,2-4.4,4.4-4.4c2.4,0,4.4,2,4.4,4.4h-2.9c0-0.8-0.7-1.5-1.5-1.5c-0.8,0-1.5,0.7-1.5,1.5
			c0,0.8,0.7,1.5,1.5,1.5c2.4,0,4.4,2,4.4,4.4C44.1,83.3,42.1,85.2,39.7,85.2z"/>
	</g>
	<g>
		<rect x="38.2" y="67.7" width="2.9" height="4.4"/>
	</g>
	<g>
		<rect x="38.2" y="83.8" width="2.9" height="4.4"/>
	</g>
	<g>
		<path d="M39.7,94c-8.9,0-16.1-7.2-16.1-16.1s7.2-16.1,16.1-16.1c8.9,0,16.1,7.2,16.1,16.1S48.6,94,39.7,94z M39.7,64.8
			c-7.2,0-13.1,5.9-13.1,13.1s5.9,13.1,13.1,13.1c7.2,0,13.1-5.9,13.1-13.1S46.9,64.8,39.7,64.8z"/>
	</g>
	<g>
		<polygon points="13.4,75 10.5,75 10.5,67.7 17.8,67.7 17.8,70.6 13.4,70.6 		"/>
	</g>
	<g>
		<polygon points="17.8,88.2 10.5,88.2 10.5,80.9 13.4,80.9 13.4,85.2 17.8,85.2 		"/>
	</g>
	<g>
		<polygon points="68.9,75 66,75 66,70.6 61.6,70.6 61.6,67.7 68.9,67.7 		"/>
	</g>
	<g>
		<polygon points="68.9,88.2 61.6,88.2 61.6,85.2 66,85.2 66,80.9 68.9,80.9 		"/>
	</g>
	<g>
		<rect x="17.8" y="31.2" width="2.9" height="32.1"/>
	</g>
	<g>
		<polygon points="90.8,76.5 73.3,76.5 73.3,73.6 87.9,73.6 87.9,31.2 90.8,31.2 		"/>
	</g>
	<g>
		<path d="M94.6,32.7H14l10.2-20.4h60.2L94.6,32.7z M18.7,29.8h71.2l-7.3-14.6H26L18.7,29.8z"/>
	</g>
	<g>
		<polygon points="82,13.7 79.1,13.7 79.1,6.4 70.4,6.4 70.4,13.7 67.4,13.7 67.4,3.5 82,3.5 		"/>
	</g>
	<g>
		<polygon points="41.2,13.7 38.2,13.7 38.2,6.4 29.5,6.4 29.5,13.7 26.6,13.7 26.6,3.5 41.2,3.5 		"/>
	</g>
	<g>
		<path d="M63.1,63.3h-2.9v-8.8c0-0.8-0.7-1.5-1.5-1.5h-8.8c-0.8,0-1.5,0.7-1.5,1.5v8.8h-2.9v-8.8c0-2.4,2-4.4,4.4-4.4h8.8
			c2.4,0,4.4,2,4.4,4.4V63.3z"/>
	</g>
	<g>
		<path d="M41.2,53.1H23.6V35.6h17.5V53.1z M26.6,50.2h11.7V38.5H26.6V50.2z"/>
	</g>
	<g>
		<path d="M64.5,47.3H44.1V35.6h20.4V47.3z M47,44.4h14.6v-5.8H47V44.4z"/>
	</g>
	<g>
		<path d="M85,53.1H67.4V35.6H85V53.1z M70.4,50.2H82V38.5H70.4V50.2z"/>
	</g>
</g>
</svg>
