<?xml version="1.0" encoding="utf-8"?>
<!-- Generator: Adobe Illustrator 21.1.0, SVG Export Plug-In . SVG Version: 6.00 Build 0)  -->
<svg version="1.1" id="Layer_1" xmlns="http://www.w3.org/2000/svg" xmlns:xlink="http://www.w3.org/1999/xlink" x="0px" y="0px"
	 viewBox="0 0 96 95" style="enable-background:new 0 0 96 95;" xml:space="preserve">
<g>
	<g>
		<g>
			<path d="M47.4,90.7H6.8V50.1h40.6V90.7z M9.5,88h35.2V52.8H9.5V88z"/>
		</g>
		<g>
			<rect x="8.1" y="55.5" width="37.9" height="2.7"/>
		</g>
		<g>
			<rect x="39.3" y="56.8" width="2.7" height="32.5"/>
		</g>
		<g>
			<rect x="12.2" y="56.8" width="2.7" height="32.5"/>
		</g>
		<g>
			<rect x="13.6" y="60.9" width="27.1" height="2.7"/>
		</g>
		<g>
			<rect x="25.7" y="69" width="2.7" height="20.3"/>
		</g>
		<g>
			<rect x="25.7" y="62.3" width="2.7" height="4.1"/>
		</g>
		<g>
			<path d="M88.1,60.9h-42v-2.7h42v-2.7h-42v-2.7h42c1.5,0,2.7,1.2,2.7,2.7v2.7C90.8,59.7,89.6,60.9,88.1,60.9z"/>
		</g>
		<g>
			<polygon points="88.1,90.7 46.1,90.7 46.1,88 85.3,88 85.3,59.5 88.1,59.5 			"/>
		</g>
		<g>
			<polygon points="77.4,16.8 73.7,9.4 23.9,9.4 20.2,16.8 17.8,15.6 22.2,6.7 75.3,6.7 79.8,15.6 			"/>
		</g>
		<g>
			<path d="M88.1,23H9.5c-1.5,0-2.7-1.2-2.7-2.7v-2.7c0-1.5,1.2-2.7,2.7-2.7h78.6c1.5,0,2.7,1.2,2.7,2.7v2.7
				C90.8,21.7,89.6,23,88.1,23z M9.5,17.5v2.7h78.6l0-2.7H9.5z"/>
		</g>
		<g>
			<rect x="9.5" y="21.6" width="2.7" height="29.8"/>
		</g>
		<g>
			<rect x="85.3" y="21.6" width="2.7" height="32.5"/>
		</g>
		<g>
			<path d="M82.6,71.7H71.8v-8.1h10.8V71.7z M74.5,69h5.4v-2.7h-5.4V69z"/>
		</g>
		<g>
			<path d="M82.6,85.3H71.8v-8.1h10.8V85.3z M74.5,82.6h5.4v-2.7h-5.4V82.6z"/>
		</g>
		<g>
			<path d="M69.1,71.7H58.3v-8.1h10.8V71.7z M61,69h5.4v-2.7H61V69z"/>
		</g>
		<g>
			<path d="M69.1,85.3H58.3v-8.1h10.8V85.3z M61,82.6h5.4v-2.7H61V82.6z"/>
		</g>
		<g>
			<polygon points="55.5,71.7 46.1,71.7 46.1,69 52.8,69 52.8,66.3 46.1,66.3 46.1,63.6 55.5,63.6 			"/>
		</g>
		<g>
			<polygon points="55.5,85.3 46.1,85.3 46.1,82.6 52.8,82.6 52.8,79.9 46.1,79.9 46.1,77.2 55.5,77.2 			"/>
		</g>
		<g>
			<rect x="31.2" y="21.6" width="2.7" height="29.8"/>
		</g>
		<g>
			<rect x="63.7" y="21.6" width="2.7" height="32.5"/>
		</g>
		<g>
			<rect x="36.6" y="21.6" width="2.7" height="29.8"/>
		</g>
		<g>
			<rect x="58.3" y="21.6" width="2.7" height="32.5"/>
		</g>
		<g>
			<path d="M28.5,33.8H14.9v-8.1h13.5V33.8z M17.6,31.1h8.1v-2.7h-8.1V31.1z"/>
		</g>
		<g>
			<path d="M28.5,44.6H14.9v-8.1h13.5V44.6z M17.6,41.9h8.1v-2.7h-8.1V41.9z"/>
		</g>
		<g>
			<rect x="20.3" y="27" width="2.7" height="5.4"/>
		</g>
		<g>
			<rect x="20.3" y="37.9" width="2.7" height="5.4"/>
		</g>
		<g>
			<path d="M82.6,33.8H69.1v-8.1h13.5V33.8z M71.8,31.1h8.1v-2.7h-8.1V31.1z"/>
		</g>
		<g>
			<path d="M82.6,44.6H69.1v-8.1h13.5V44.6z M71.8,41.9h8.1v-2.7h-8.1V41.9z"/>
		</g>
		<g>
			<rect x="74.5" y="27" width="2.7" height="5.4"/>
		</g>
		<g>
			<rect x="74.5" y="37.9" width="2.7" height="5.4"/>
		</g>
		<g>
			<polygon points="82.6,54.1 79.9,54.1 79.9,50.1 71.8,50.1 71.8,54.1 69.1,54.1 69.1,47.3 82.6,47.3 			"/>
		</g>
		<g>
			<rect x="74.5" y="48.7" width="2.7" height="5.4"/>
		</g>
		<g>
			<path d="M55.5,33.8H42v-8.1h13.5V33.8z M44.7,31.1h8.1v-2.7h-8.1V31.1z"/>
		</g>
		<g>
			<path d="M55.5,44.6H42v-8.1h13.5V44.6z M44.7,41.9h8.1v-2.7h-8.1V41.9z"/>
		</g>
		<g>
			<rect x="47.4" y="27" width="2.7" height="5.4"/>
		</g>
		<g>
			<rect x="47.4" y="37.9" width="2.7" height="5.4"/>
		</g>
	</g>
</g>
</svg>
