<?xml version="1.0" encoding="utf-8"?>
<!-- Generator: Adobe Illustrator 21.1.0, SVG Export Plug-In . SVG Version: 6.00 Build 0)  -->
<svg version="1.1" id="Layer_1" xmlns="http://www.w3.org/2000/svg" xmlns:xlink="http://www.w3.org/1999/xlink" x="0px" y="0px"
	 viewBox="0 0 96 95" style="enable-background:new 0 0 96 95;" xml:space="preserve">
<g>
	<g>
		<rect x="11.2" y="40.9" width="3" height="7.2"/>
	</g>
	<g>
		<polygon points="86,31.9 83,31.9 83,5 26.9,5 14.2,19 14.2,31.9 11.2,31.9 11.2,17.9 25.5,2 86,2 		"/>
	</g>
	<g>
		<rect x="83" y="40.9" width="3" height="6.6"/>
	</g>
	<g>
		<polygon points="29.2,20 12.7,20 12.7,17 26.2,17 26.2,3.5 29.2,3.5 		"/>
	</g>
	<g>
		<path d="M48.6,46.9c-3.3,0-6-2.7-6-6h3c0,1.6,1.3,3,3,3c1.6,0,3-1.3,3-3s-1.3-3-3-3c-3.3,0-6-2.7-6-6s2.7-6,6-6c3.3,0,6,2.7,6,6
			h-3c0-1.6-1.3-3-3-3c-1.6,0-3,1.3-3,3s1.3,3,3,3c3.3,0,6,2.7,6,6S51.9,46.9,48.6,46.9z"/>
	</g>
	<g>
		<rect x="47.1" y="45.4" width="3" height="4.5"/>
	</g>
	<g>
		<rect x="47.1" y="22.9" width="3" height="4.5"/>
	</g>
	<g>
		<path d="M74.1,46.7L56.4,34.9l17.7-11.8v5.8H95v12H74.1V46.7z M61.8,34.9l9.3,6.2v-3.2H92v-6H71.1v-3.2L61.8,34.9z"/>
	</g>
	<g>
		<path d="M23.2,46.7v-5.8H2.3v-12h20.9v-5.8l17.7,11.8L23.2,46.7z M5.2,37.9h20.9v3.2l9.3-6.2l-9.3-6.2v3.2H5.2V37.9z"/>
	</g>
	<g>
		<rect x="32.2" y="8" width="47.9" height="3"/>
	</g>
	<g>
		<rect x="32.2" y="14" width="47.9" height="3"/>
	</g>
	<g>
		<path d="M48.6,94.8h-0.3c-1.2,0-2.3-0.5-3.2-1.3L44,92.2c-0.8-0.8-1.3-2-1.3-3.2v-0.3c0-2.5,2-4.5,4.5-4.5h0.3
			c1.2,0,2.3,0.5,3.2,1.3l1.2,1.2c0.8,0.8,1.3,2,1.3,3.2v0.3C53.1,92.7,51.1,94.8,48.6,94.8z M47.1,87.3c-0.8,0-1.5,0.7-1.5,1.5V89
			c0,0.4,0.2,0.8,0.4,1.1l1.2,1.2c0.3,0.3,0.7,0.4,1.1,0.4h0.3c0.8,0,1.5-0.7,1.5-1.5V90c0-0.4-0.2-0.8-0.4-1.1l-1.2-1.2
			c-0.3-0.3-0.7-0.4-1.1-0.4H47.1z"/>
	</g>
	<g>
		<path d="M56.1,93.3c-1.4,0-2.7-0.7-3.6-1.8l-3-4c-0.6-0.8-0.9-1.7-0.9-2.7v-0.5c0-2.5,2-4.5,4.5-4.5c1.4,0,2.7,0.7,3.6,1.8l3,4
			c0.6,0.8,0.9,1.7,0.9,2.7v0.5C60.6,91.2,58.6,93.3,56.1,93.3z M53.1,82.8c-0.8,0-1.5,0.7-1.5,1.5v0.5c0,0.3,0.1,0.6,0.3,0.9l3,4
			c0.3,0.4,0.7,0.6,1.2,0.6c0.8,0,1.5-0.7,1.5-1.5v-0.5c0-0.3-0.1-0.6-0.3-0.9v0l-3-4C54,83,53.6,82.8,53.1,82.8z"/>
	</g>
	<g>
		<path d="M62.1,90.3c-1.4,0-2.7-0.7-3.6-1.8l-3-4c-0.6-0.8-0.9-1.7-0.9-2.7v-0.5c0-2.5,2-4.5,4.5-4.5c1.4,0,2.7,0.7,3.6,1.8l3,4
			c0.6,0.8,0.9,1.7,0.9,2.7v0.5C66.6,88.2,64.6,90.3,62.1,90.3z M59.1,79.8c-0.8,0-1.5,0.7-1.5,1.5v0.5c0,0.3,0.1,0.6,0.3,0.9l3,4
			c0.3,0.4,0.7,0.6,1.2,0.6c0.8,0,1.5-0.7,1.5-1.5v-0.5c0-0.3-0.1-0.6-0.3-0.9v0l-3-4C60,80,59.6,79.8,59.1,79.8z"/>
	</g>
	<g>
		<path d="M68.1,87.3c-1.4,0-2.7-0.7-3.6-1.8l-3-4c-0.6-0.8-0.9-1.7-0.9-2.7v-0.5c0-2.5,2-4.5,4.5-4.5c1.4,0,2.7,0.7,3.6,1.8l3,4
			c0.6,0.8,0.9,1.7,0.9,2.7v0.5C72.6,85.3,70.5,87.3,68.1,87.3z M65.1,76.8c-0.8,0-1.5,0.7-1.5,1.5v0.5c0,0.3,0.1,0.6,0.3,0.9l3,4
			c0.3,0.4,0.7,0.6,1.2,0.6c0.8,0,1.5-0.7,1.5-1.5v-0.5c0-0.3-0.1-0.6-0.3-0.9v0l-3-4C66,77,65.5,76.8,65.1,76.8z"/>
	</g>
	<g>
		<path d="M95,76.8H77.4l-8.3-26.4L92,43.9h3V76.8z M79.6,73.8H92V46.9l-19.1,5.4L79.6,73.8z"/>
	</g>
	<g>
		<path d="M15.3,76.8H2.3V43.9h3.3l18,6.6L15.3,76.8z M5.2,73.8h7.9l6.7-21.5L5.2,47V73.8z"/>
	</g>
	<g>
		<path d="M30.9,85.8c-2.6,0-4.7-2.1-4.7-4.7c0-1.2,0.5-2.4,1.4-3.3l9.8-9.8c1.8-1.8,4.9-2.2,7.1-0.9l5.6,3.4c0.3,0.2,0.7,0.3,1,0.3
			c1.1,0,2-0.9,2-2v-0.5c0-0.7-0.4-1.3-0.9-1.7L44,61.5c-1.2-0.7-2.6-1.1-4-1.1H28.8l-9.3-4.6l1.3-2.7l8.7,4.3h10.5
			c2,0,3.9,0.6,5.6,1.6l8.1,5.1c1.5,0.9,2.4,2.5,2.4,4.2v0.5c0,2.8-2.2,5-5,5c-0.9,0-1.8-0.2-2.6-0.7l-5.6-3.4
			c-1.1-0.6-2.6-0.5-3.5,0.4l-9.8,9.8c-0.3,0.3-0.5,0.7-0.5,1.2c0,0.9,0.8,1.7,1.7,1.7c0.4,0,0.9-0.2,1.2-0.5l8-8l2.1,2.1l-8,8
			C33.3,85.3,32.1,85.8,30.9,85.8z"/>
	</g>
	<g>
		<path d="M44.8,61.7L43.5,59l4.4-2.2c1.3-0.6,2.6-1,4-1.1l20.6-1.4l0.2,3L52,58.7c-1,0.1-2,0.3-2.8,0.8L44.8,61.7z"/>
	</g>
	<g>
		<polygon points="28.8,79.7 22.4,78.1 14.9,73.6 16.5,71 23.8,75.4 29.5,76.8 		"/>
	</g>
	<g>
		<path d="M35.3,90.3c-2.6,0-4.7-2.1-4.7-4.7c0-1.2,0.5-2.4,1.4-3.3l6.6-6.6l2.1,2.1l-6.6,6.6c-0.3,0.3-0.5,0.7-0.5,1.2
			c0,0.9,0.8,1.7,1.7,1.7c0.4,0,0.9-0.2,1.2-0.5l8-8l2.1,2.1l-8,8C37.8,89.8,36.6,90.3,35.3,90.3z"/>
	</g>
	<g>
		<path d="M41.3,93.3c-2.6,0-4.7-2.1-4.7-4.7c0-1.2,0.5-2.4,1.4-3.3l6.6-6.6l2.1,2.1l-6.6,6.6c-0.3,0.3-0.5,0.7-0.5,1.2
			c0,0.9,0.8,1.7,1.7,1.7c0.4,0,0.9-0.2,1.2-0.5l0.8-0.8l2.1,2.1l-0.8,0.8C43.8,92.8,42.6,93.3,41.3,93.3z"/>
	</g>
	<g>
		<rect x="68.5" y="73.8" transform="matrix(0.7809 -0.6247 0.6247 0.7809 -30.9769 62.2966)" width="9.6" height="3"/>
	</g>
</g>
</svg>
